<?xml version="1.0" encoding="UTF-8"?> <svg xmlns="http://www.w3.org/2000/svg" width="89" height="89" viewBox="0 0 89 89"><g id="Group_18751" data-name="Group 18751" transform="translate(-401.217 141.783)"><rect id="Rectangle_7288" data-name="Rectangle 7288" width="89" height="89" transform="translate(401.217 -141.783)"></rect><g id="Group_18737" data-name="Group 18737" transform="translate(409.527 -124.484)"><g id="Group_18736" data-name="Group 18736" transform="translate(0 0)"><path id="Path_12893" data-name="Path 12893" d="M26.3-24.911l3.244,10.794H39.781L26.742-56.169H14.263L1.411-14.117h9.858l2.995-10.794ZM15.636-32.024l2.5-8.922c.686-2.433,1.31-5.615,1.934-8.111h.125c.624,2.5,1.373,5.615,2.121,8.111l2.62,8.922ZM45.147-16.052a27.52,27.52,0,0,0,11.917,2.558c11.542,0,16.97-5.99,16.97-13.04,0-5.927-3.494-9.8-10.918-12.541-5.428-2.059-7.8-3.244-7.8-5.927,0-2.184,2-4.055,6.114-4.055a19.99,19.99,0,0,1,8.8,2l2.121-7.674a25.764,25.764,0,0,0-10.731-2.121c-9.92,0-15.91,5.49-15.91,12.665,0,6.114,4.555,9.983,11.542,12.416,5.054,1.809,7.05,3.307,7.05,5.927,0,2.745-2.308,4.555-6.676,4.555a24.261,24.261,0,0,1-10.544-2.62Z" transform="translate(-1.411 56.855)" fill="#fff"></path><path id="Path_12894" data-name="Path 12894" d="M.66-1.686H1.8V-3.34l.436-.534,1.24,2.187H4.809L3.043-4.6,4.719-6.752H3.313L2.163-5.069c-.113.18-.233.361-.346.556H1.8v-2.24H.66Zm11.591,0,.481-2.18c.12-.511.2-.992.293-1.564h.015c.06.579.143,1.052.241,1.564l.428,2.18h1.24l1.308-5.066H15.093l-.413,2.075c-.105.6-.218,1.2-.293,1.759h-.015c-.075-.564-.158-1.1-.271-1.7l-.406-2.135H12.477l-.428,2.075c-.128.624-.248,1.233-.331,1.782H11.7c-.083-.511-.188-1.165-.3-1.766l-.383-2.09H9.793L11-1.686Zm11.726-1.3.391,1.3H25.6L24.03-6.752h-1.5L20.978-1.686h1.188l.361-1.3Zm-1.285-.857.3-1.075c.083-.293.158-.677.233-.977h.015c.075.3.165.677.256.977l.316,1.075Zm8.487,2.135a9.921,9.921,0,0,0,1.3.075,3.637,3.637,0,0,0,2.338-.654,2.57,2.57,0,0,0,.842-2.052A2.242,2.242,0,0,0,34.8-6.249a3.259,3.259,0,0,0-2.075-.541,10.227,10.227,0,0,0-1.548.105Zm1.15-4.157a2.382,2.382,0,0,1,.519-.045A1.453,1.453,0,0,1,34.441-4.3a1.571,1.571,0,0,1-1.714,1.774,2.108,2.108,0,0,1-.4-.023Zm8.983,4.179h1.135V-3.678h.346c.466.008.684.18.819.812a6.34,6.34,0,0,0,.353,1.18h1.173c-.1-.2-.256-.857-.413-1.428a1.278,1.278,0,0,0-.677-.947v-.023a1.344,1.344,0,0,0,.895-1.248,1.286,1.286,0,0,0-.466-1.06,2.585,2.585,0,0,0-1.639-.4,10.067,10.067,0,0,0-1.526.105ZM42.447-5.9a2.86,2.86,0,0,1,.519-.038c.526.008.842.241.842.707,0,.443-.338.729-.91.729h-.451ZM53.369-2.986l.391,1.3h1.233L53.421-6.752h-1.5L50.37-1.686h1.188l.361-1.3Zm-1.285-.857.3-1.075c.083-.293.158-.677.233-.977h.015c.075.3.165.677.256.977L53.2-3.843ZM63.2-2.986l.391,1.3h1.233L63.254-6.752h-1.5L60.2-1.686h1.188l.361-1.3Zm-1.285-.857.3-1.075c.083-.293.158-.677.233-.977h.015c.075.3.165.677.256.977l.316,1.075Zm8.84,2.157h1.15v-4.1h1.383v-.962H69.395v.962h1.361Z" transform="translate(-0.473 55.699)" fill="#fff"></path></g></g></g></svg> 