<?xml version="1.0" encoding="UTF-8" standalone="no"?> <svg xmlns="http://www.w3.org/2000/svg" xmlns:xlink="http://www.w3.org/1999/xlink" xmlns:serif="http://www.serif.com/" width="100%" height="100%" viewBox="0 0 1478 309" version="1.1" xml:space="preserve" style="fill-rule:evenodd;clip-rule:evenodd;stroke-miterlimit:2;"> <g transform="matrix(1,0,0,1,-231.949,-380.568)"> <g transform="matrix(4.16667,0,0,4.16667,297.168,415.624)"> <path d="M283.641,7.239L0,7.239" style="fill:none;stroke:rgb(35,31,32);stroke-width:14px;"></path> </g> <g transform="matrix(4.16667,0,0,4.16667,297.168,415.624)"> <path d="M283.011,7.241C298.198,7.241 323.212,7.338 323.212,29.989C323.212,50.815 298.198,49.977 283.011,49.977L158.791,49.977" style="fill:none;stroke:rgb(35,31,32);stroke-width:14px;"></path> </g> <g transform="matrix(4.16667,0,0,4.16667,297.168,415.624)"> <path d="M163.808,37.459L163.808,19.803L167.964,19.803L167.964,27.154L177.747,19.803L183.698,19.803L171.991,28.118L185.138,37.459L178.534,37.459L167.964,29.688L167.964,37.459L163.808,37.459Z" style="fill:rgb(253,185,18);fill-rule:nonzero;"></path> </g> <g transform="matrix(4.16667,0,0,4.16667,297.168,415.624)"> <path d="M192.897,34.678L204.554,34.678L204.554,25.647L192.897,25.647L192.897,34.678ZM189.366,26.411C189.366,25.043 189.628,24.131 190.153,23.675C190.677,23.219 191.669,22.991 193.13,22.991L204.319,22.991C205.78,22.991 206.772,23.219 207.298,23.675C207.821,24.131 208.085,25.043 208.085,26.411L208.085,34.039C208.085,35.384 207.815,36.291 207.28,36.758C206.743,37.226 205.757,37.459 204.319,37.459L193.13,37.459C191.669,37.459 190.677,37.226 190.153,36.758C189.628,36.291 189.366,35.384 189.366,34.039L189.366,26.411Z" style="fill:rgb(253,185,18);fill-rule:nonzero;"></path> </g> <g transform="matrix(4.16667,0,0,4.16667,297.168,415.624)"> <path d="M214.188,37.459L214.188,22.991L229.731,22.991L229.731,25.553L217.751,25.553L217.751,28.709L224.731,28.709L224.731,31.209L217.751,31.209L217.751,34.741L229.901,34.741L229.901,37.459L214.188,37.459Z" style="fill:rgb(253,185,18);fill-rule:nonzero;"></path> </g> <g transform="matrix(4.16667,0,0,4.16667,297.168,415.624)"> <path d="M246.55,25.491L238.503,25.491L238.503,29.491L246.55,29.491C247.622,29.491 248.159,29.103 248.159,28.328L248.159,26.653C248.159,25.878 247.622,25.491 246.55,25.491ZM235.003,37.459L235.003,22.991L248.05,22.991C250.31,22.991 251.44,23.926 251.44,25.797L251.44,29.218C251.44,31.067 250.31,31.991 248.05,31.991L246.063,31.991L252.946,37.459L247.878,37.459L241.821,31.991L238.503,31.991L238.503,37.459L235.003,37.459Z" style="fill:rgb(253,185,18);fill-rule:nonzero;"></path> </g> <g transform="matrix(4.16667,0,0,4.16667,297.168,415.624)"> <rect x="257.256" y="22.991" width="3.532" height="14.468" style="fill:rgb(253,185,18);fill-rule:nonzero;"></rect> </g> <g transform="matrix(4.16667,0,0,4.16667,297.168,415.624)"> <path d="M267.218,37.459L267.218,22.991L282.761,22.991L282.761,25.553L270.78,25.553L270.78,28.709L277.763,28.709L277.763,31.209L270.78,31.209L270.78,34.741L282.933,34.741L282.933,37.459L267.218,37.459Z" style="fill:rgb(253,185,18);fill-rule:nonzero;"></path> </g> <g transform="matrix(4.16667,0,0,4.16667,297.168,415.624)"> <path d="M299.581,25.491L291.534,25.491L291.534,29.491L299.581,29.491C300.653,29.491 301.19,29.103 301.19,28.328L301.19,26.653C301.19,25.878 300.653,25.491 299.581,25.491ZM288.034,37.459L288.034,22.991L301.081,22.991C303.341,22.991 304.472,23.926 304.472,25.797L304.472,29.218C304.472,31.067 303.341,31.991 301.081,31.991L299.095,31.991L305.976,37.459L300.909,37.459L294.853,31.991L291.534,31.991L291.534,37.459L288.034,37.459Z" style="fill:rgb(253,185,18);fill-rule:nonzero;"></path> </g> <g transform="matrix(4.16667,0,0,4.16667,297.168,415.624)"> <path d="M164.071,10.912L164.071,4.99L170.427,4.99L170.427,6.037L165.524,6.037L165.524,7.326L168.384,7.326L168.384,8.349L165.524,8.349L165.524,9.802L170.497,9.802L170.497,10.912L164.071,10.912Z" style="fill:white;fill-rule:nonzero;"></path> </g> <g transform="matrix(4.16667,0,0,4.16667,297.168,415.624)"> <path d="M175.915,10.912L172.331,4.99L173.968,4.99L176.474,9.288L178.841,4.99L180.339,4.99L176.909,10.912L175.915,10.912Z" style="fill:white;fill-rule:nonzero;"></path> </g> <g transform="matrix(4.16667,0,0,4.16667,297.168,415.624)"> <path d="M182.55,10.912L182.55,4.99L188.907,4.99L188.907,6.037L184.003,6.037L184.003,7.326L186.862,7.326L186.862,8.349L184.003,8.349L184.003,9.802L188.976,9.802L188.976,10.912L182.55,10.912Z" style="fill:white;fill-rule:nonzero;"></path> </g> <g transform="matrix(4.16667,0,0,4.16667,297.168,415.624)"> <path d="M196.347,6.013L193.052,6.013L193.052,7.646L196.347,7.646C196.786,7.646 197.005,7.488 197.005,7.171L197.005,6.488C197.005,6.171 196.786,6.013 196.347,6.013ZM191.622,10.912L191.622,4.99L196.962,4.99C197.886,4.99 198.349,5.372 198.349,6.137L198.349,7.536C198.349,8.292 197.886,8.669 196.962,8.669L196.149,8.669L198.964,10.912L196.892,10.912L194.411,8.669L193.052,8.669L193.052,10.912L191.622,10.912Z" style="fill:white;fill-rule:nonzero;"></path> </g> <g transform="matrix(4.16667,0,0,4.16667,297.168,415.624)"> <path d="M203.524,10.912L203.524,8.251L200.29,4.99L202.235,4.99L204.351,7.202L206.491,4.99L208.187,4.99L204.97,8.224L204.97,10.912L203.524,10.912Z" style="fill:white;fill-rule:nonzero;"></path> </g> <g transform="matrix(4.16667,0,0,4.16667,297.168,415.624)"> <path d="M217.583,9.802L219.442,9.802C220.403,9.802 221.089,9.671 221.499,9.411C221.956,9.112 222.185,8.594 222.185,7.857C222.185,6.654 221.499,6.052 220.128,6.052L217.583,6.052L217.583,9.802ZM216.13,10.912L216.13,4.99L220.116,4.99C221.272,4.99 222.153,5.247 222.759,5.76C223.366,6.273 223.669,6.997 223.669,7.93C223.669,9.918 222.362,10.912 219.753,10.912L216.13,10.912Z" style="fill:white;fill-rule:nonzero;"></path> </g> <g transform="matrix(4.16667,0,0,4.16667,297.168,415.624)"> <path d="M226.397,10.912L226.397,4.99L232.755,4.99L232.755,6.037L227.851,6.037L227.851,7.326L230.71,7.326L230.71,8.349L227.851,8.349L227.851,9.802L232.823,9.802L232.823,10.912L226.397,10.912Z" style="fill:white;fill-rule:nonzero;"></path> </g> <g transform="matrix(4.16667,0,0,4.16667,297.168,415.624)"> <path d="M235.47,10.912L235.47,4.99L236.923,4.99L236.923,9.802L241.573,9.802L241.573,10.912L235.47,10.912Z" style="fill:white;fill-rule:nonzero;"></path> </g> <g transform="matrix(4.16667,0,0,4.16667,297.168,415.624)"> <rect x="243.757" y="4.99" width="1.445" height="5.922" style="fill:white;fill-rule:nonzero;"></rect> </g> <g transform="matrix(4.16667,0,0,4.16667,297.168,415.624)"> <path d="M251.163,10.912L247.579,4.99L249.216,4.99L251.722,9.288L254.089,4.99L255.587,4.99L252.157,10.912L251.163,10.912Z" style="fill:white;fill-rule:nonzero;"></path> </g> <g transform="matrix(4.16667,0,0,4.16667,297.168,415.624)"> <path d="M257.799,10.912L257.799,4.99L264.155,4.99L264.155,6.037L259.252,6.037L259.252,7.326L262.112,7.326L262.112,8.349L259.252,8.349L259.252,9.802L264.226,9.802L264.226,10.912L257.799,10.912Z" style="fill:white;fill-rule:nonzero;"></path> </g> <g transform="matrix(4.16667,0,0,4.16667,297.168,415.624)"> <path d="M271.595,6.013L268.3,6.013L268.3,7.646L271.595,7.646C272.034,7.646 272.253,7.488 272.253,7.171L272.253,6.488C272.253,6.171 272.034,6.013 271.595,6.013ZM266.87,10.912L266.87,4.99L272.21,4.99C273.134,4.99 273.597,5.372 273.597,6.137L273.597,7.536C273.597,8.292 273.134,8.669 272.21,8.669L271.397,8.669L274.212,10.912L272.14,10.912L269.659,8.669L268.3,8.669L268.3,10.912L266.87,10.912Z" style="fill:white;fill-rule:nonzero;"></path> </g> <g transform="matrix(4.16667,0,0,4.16667,297.168,415.624)"> <path d="M278.772,10.912L278.772,8.251L275.538,4.99L277.485,4.99L279.599,7.202L281.741,4.99L283.435,4.99L280.218,8.224L280.218,10.912L278.772,10.912Z" style="fill:white;fill-rule:nonzero;"></path> </g> <g transform="matrix(4.16667,0,0,4.16667,297.168,415.624)"> <rect x="291.37" y="4.99" width="1.445" height="5.922" style="fill:white;fill-rule:nonzero;"></rect> </g> <g transform="matrix(4.16667,0,0,4.16667,297.168,415.624)"> <path d="M301.481,6.052L297.411,6.052L297.411,7.302L301.261,7.302C301.858,7.302 302.265,7.398 302.479,7.589C302.694,7.78 302.802,8.151 302.802,8.701L302.802,9.513C302.802,10.063 302.694,10.434 302.479,10.625C302.263,10.816 301.856,10.912 301.259,10.912L297.409,10.912C296.812,10.912 296.403,10.816 296.185,10.624C295.964,10.432 295.854,10.06 295.854,9.508L295.854,9.34L297.144,9.102L297.144,9.802L301.497,9.802L301.497,8.451L297.661,8.451C297.071,8.451 296.667,8.355 296.442,8.164C296.218,7.972 296.106,7.601 296.106,7.049L296.106,6.391C296.106,5.84 296.218,5.468 296.442,5.277C296.667,5.085 297.073,4.99 297.661,4.99L301.177,4.99C301.745,4.99 302.147,5.079 302.38,5.255C302.614,5.433 302.731,5.773 302.731,6.276L302.731,6.417L301.481,6.682L301.481,6.052Z" style="fill:white;fill-rule:nonzero;"></path> </g> <g transform="matrix(4.16667,0,0,4.16667,297.168,415.624)"> <path d="M166.44,50.31L169.156,50.31L167.771,47.849L166.44,50.31ZM163.641,52.693L167.154,46.771L168.54,46.771L172.109,52.693L170.485,52.693L169.744,51.388L165.824,51.388L165.082,52.693L163.641,52.693Z" style="fill:white;fill-rule:nonzero;"></path> </g> <g transform="matrix(4.16667,0,0,4.16667,297.168,415.624)"> <path d="M184.47,47.833L180.399,47.833L180.399,49.083L184.25,49.083C184.848,49.083 185.253,49.179 185.468,49.371C185.683,49.562 185.79,49.932 185.79,50.482L185.79,51.294C185.79,51.844 185.683,52.215 185.467,52.406C185.252,52.597 184.846,52.693 184.247,52.693L180.397,52.693C179.8,52.693 179.392,52.597 179.172,52.405C178.953,52.213 178.844,51.841 178.844,51.29L178.844,51.122L180.131,50.883L180.131,51.583L184.485,51.583L184.485,50.232L180.648,50.232C180.061,50.232 179.654,50.136 179.431,49.945C179.207,49.753 179.095,49.382 179.095,48.831L179.095,48.172C179.095,47.621 179.207,47.249 179.431,47.058C179.655,46.867 180.062,46.771 180.649,46.771L184.165,46.771C184.734,46.771 185.136,46.86 185.369,47.037C185.603,47.213 185.72,47.554 185.72,48.057L185.72,48.198L184.47,48.463L184.47,47.833Z" style="fill:white;fill-rule:nonzero;"></path> </g> <g transform="matrix(4.16667,0,0,4.16667,297.168,415.624)"> <path d="M192.999,47.794L189.705,47.794L189.705,49.357L192.999,49.357C193.438,49.357 193.658,49.199 193.658,48.882L193.658,48.269C193.658,47.953 193.438,47.794 192.999,47.794ZM188.275,52.693L188.275,46.771L193.614,46.771C194.101,46.771 194.453,46.86 194.673,47.037C194.893,47.214 195.002,47.507 195.002,47.918L195.002,49.233C195.002,49.998 194.539,50.38 193.614,50.38L189.705,50.38L189.705,52.693L188.275,52.693Z" style="fill:white;fill-rule:nonzero;"></path> </g> <g transform="matrix(4.16667,0,0,4.16667,297.168,415.624)"> <path d="M197.066,52.693L197.066,46.771L203.422,46.771L203.422,47.818L198.52,47.818L198.52,49.107L201.379,49.107L201.379,50.13L198.52,50.13L198.52,51.583L203.492,51.583L203.492,52.693L197.066,52.693Z" style="fill:white;fill-rule:nonzero;"></path> </g> <g transform="matrix(4.16667,0,0,4.16667,297.168,415.624)"> <path d="M210.774,47.865L206.884,47.865L206.884,51.56L210.774,51.56L210.774,50.3L212.228,50.594L212.228,51.294C212.228,51.844 212.118,52.215 211.898,52.406C211.68,52.597 211.271,52.693 210.674,52.693L206.979,52.693C206.381,52.693 205.975,52.595 205.761,52.399C205.546,52.203 205.438,51.834 205.438,51.292L205.438,48.171C205.438,47.621 205.546,47.249 205.761,47.058C205.975,46.867 206.381,46.771 206.979,46.771L210.674,46.771C211.271,46.771 211.68,46.867 211.898,47.058C212.118,47.25 212.228,47.622 212.228,48.172L212.228,48.747L210.774,48.957L210.774,47.865Z" style="fill:white;fill-rule:nonzero;"></path> </g> <g transform="matrix(4.16667,0,0,4.16667,297.168,415.624)"> <rect x="214.595" y="46.771" width="1.445" height="5.922" style="fill:white;fill-rule:nonzero;"></rect> </g> <g transform="matrix(4.16667,0,0,4.16667,297.168,415.624)"> <path d="M220.577,50.31L223.293,50.31L221.907,47.849L220.577,50.31ZM217.777,52.693L221.291,46.771L222.677,46.771L226.246,52.693L224.622,52.693L223.881,51.388L219.961,51.388L219.219,52.693L217.777,52.693Z" style="fill:white;fill-rule:nonzero;"></path> </g> <g transform="matrix(4.16667,0,0,4.16667,297.168,415.624)"> <path d="M227.713,52.693L227.713,46.771L229.166,46.771L229.166,51.583L233.816,51.583L233.816,52.693L227.713,52.693Z" style="fill:white;fill-rule:nonzero;"></path> </g> <g transform="matrix(4.16667,0,0,4.16667,297.168,415.624)"> <path d="M242.319,51.583L244.18,51.583C245.14,51.583 245.825,51.453 246.235,51.192C246.692,50.893 246.921,50.375 246.921,49.638C246.921,48.435 246.235,47.833 244.865,47.833L242.319,47.833L242.319,51.583ZM240.866,52.693L240.866,46.771L244.853,46.771C246.009,46.771 246.89,47.028 247.496,47.541C248.103,48.054 248.405,48.778 248.405,49.71C248.405,51.699 247.1,52.693 244.489,52.693L240.866,52.693Z" style="fill:white;fill-rule:nonzero;"></path> </g> <g transform="matrix(4.16667,0,0,4.16667,297.168,415.624)"> <path d="M250.574,52.693L250.574,46.771L256.93,46.771L256.93,47.818L252.027,47.818L252.027,49.107L254.887,49.107L254.887,50.13L252.027,50.13L252.027,51.583L257,51.583L257,52.693L250.574,52.693Z" style="fill:white;fill-rule:nonzero;"></path> </g> <g transform="matrix(4.16667,0,0,4.16667,297.168,415.624)"> <path d="M259.086,52.693L259.086,46.771L260.539,46.771L260.539,51.583L265.189,51.583L265.189,52.693L259.086,52.693Z" style="fill:white;fill-rule:nonzero;"></path> </g> <g transform="matrix(4.16667,0,0,4.16667,297.168,415.624)"> <rect x="266.813" y="46.771" width="1.446" height="5.922" style="fill:white;fill-rule:nonzero;"></rect> </g> <g transform="matrix(4.16667,0,0,4.16667,297.168,415.624)"> <path d="M273.659,52.693L270.075,46.771L271.713,46.771L274.219,51.069L276.585,46.771L278.083,46.771L274.653,52.693L273.659,52.693Z" style="fill:white;fill-rule:nonzero;"></path> </g> <g transform="matrix(4.16667,0,0,4.16667,297.168,415.624)"> <path d="M279.735,52.693L279.735,46.771L286.092,46.771L286.092,47.818L281.188,47.818L281.188,49.107L284.047,49.107L284.047,50.13L281.188,50.13L281.188,51.583L286.161,51.583L286.161,52.693L279.735,52.693Z" style="fill:white;fill-rule:nonzero;"></path> </g> <g transform="matrix(4.16667,0,0,4.16667,297.168,415.624)"> <path d="M292.971,47.794L289.677,47.794L289.677,49.427L292.971,49.427C293.41,49.427 293.63,49.269 293.63,48.953L293.63,48.269C293.63,47.953 293.41,47.794 292.971,47.794ZM288.247,52.693L288.247,46.771L293.586,46.771C294.511,46.771 294.974,47.154 294.974,47.918L294.974,49.318C294.974,50.073 294.511,50.451 293.586,50.451L292.773,50.451L295.588,52.693L293.516,52.693L291.036,50.451L289.677,50.451L289.677,52.693L288.247,52.693Z" style="fill:white;fill-rule:nonzero;"></path> </g> <g transform="matrix(4.16667,0,0,4.16667,297.168,415.624)"> <path d="M299.589,52.693L299.589,50.033L296.354,46.771L298.301,46.771L300.414,48.983L302.557,46.771L304.25,46.771L301.034,50.005L301.034,52.693L299.589,52.693Z" style="fill:white;fill-rule:nonzero;"></path> </g> <g transform="matrix(4.16667,0,0,4.16667,297.168,415.624)"> <path d="M62.477,11.833L62.445,5.338L39.505,5.338L38.132,12.738C46.316,12.968 54.473,12.935 62.477,11.833Z" style="fill:white;fill-rule:nonzero;"></path> </g> <g transform="matrix(4.16667,0,0,4.16667,297.168,415.624)"> <path d="M38.132,12.738L35.785,25.389C35.103,29.487 34.917,30.731 34.421,34.609C33.987,31.17 33.801,29.999 33.119,26.34L30.5,12.479C22.337,12.172 14.188,11.874 6.177,12.399L5.963,57L20.719,57L20.719,26.559C20.719,22.974 20.657,22.096 20.533,18.95C21.215,22.681 21.525,24.072 22.145,27.218L28.469,57L40.187,57L46.511,26.34C47.131,23.413 47.441,21.51 47.999,18.657C47.875,22.169 47.875,23.706 47.875,27.291L47.875,57L62.693,57L62.477,11.833C54.473,12.935 46.316,12.968 38.132,12.738Z" style="fill:rgb(253,185,18);fill-rule:nonzero;"></path> </g> <g transform="matrix(4.16667,0,0,4.16667,297.168,415.624)"> <path d="M30.5,12.479L29.151,5.338L6.211,5.338L6.177,12.399C14.188,11.874 22.337,12.172 30.5,12.479Z" style="fill:white;fill-rule:nonzero;"></path> </g> <g transform="matrix(4.16667,0,0,4.16667,297.168,415.624)"> <path d="M107.898,12.152L109.255,5.338L93.259,5.338L92.255,12.669C97.418,12.933 102.603,12.941 107.898,12.152Z" style="fill:white;fill-rule:nonzero;"></path> </g> <g transform="matrix(4.16667,0,0,4.16667,297.168,415.624)"> <path d="M83.775,12.1L82.781,5.338L66.599,5.338L67.853,11.635C73.251,11.377 78.528,11.712 83.775,12.1Z" style="fill:white;fill-rule:nonzero;"></path> </g> <g transform="matrix(4.16667,0,0,4.16667,297.168,415.624)"> <path d="M92.255,12.669L89.043,36.145C88.671,38.999 88.547,39.804 88.175,43.537C87.741,39.511 87.679,38.853 87.245,35.707L83.775,12.1C78.528,11.712 73.251,11.377 67.853,11.635L76.891,57L98.963,57L107.898,12.152C102.603,12.941 97.418,12.933 92.255,12.669Z" style="fill:rgb(253,185,18);fill-rule:nonzero;"></path> </g> <g transform="matrix(4.16667,0,0,4.16667,297.168,415.624)"> <path d="M146.392,6.876C143.726,5.338 140.502,5.265 132.442,5.338L113.47,5.338L113.47,12.672C125.498,12.559 138.13,11.78 150.171,10.934C149.401,9.418 148.224,7.957 146.392,6.876Z" style="fill:white;fill-rule:nonzero;"></path> </g> <g transform="matrix(4.16667,0,0,4.16667,297.168,415.624)"> <path d="M135.604,46.902C134.24,48.292 132.256,48.366 130.83,48.366L129.093,48.366L129.093,34.243L130.52,34.243C132.008,34.243 134.054,34.169 135.356,35.267C137.402,36.951 137.402,40.17 137.402,40.975C137.402,43.829 136.658,45.877 135.604,46.902ZM129.093,13.973L130.396,13.973C133.124,13.973 135.356,14.046 136.348,17.046C136.534,17.706 136.72,18.583 136.72,19.974C136.72,22.901 135.79,24.437 135.046,25.096C133.868,26.121 132.07,26.121 130.705,26.121L129.093,26.121L129.093,13.973ZM149.12,31.096C148.19,30.365 147.074,29.852 145.958,29.633C145.276,29.414 144.532,29.34 143.788,29.267C144.346,29.121 144.842,28.901 145.338,28.681C146.764,28.096 148.687,26.925 150.112,24.364C151.477,21.876 151.6,19.461 151.6,17.852C151.6,16.713 151.591,13.73 150.171,10.934C138.13,11.78 125.498,12.559 113.47,12.672L113.47,57L134.24,57C140.875,57 145.09,56.708 148.19,54.585C150.05,53.341 151.6,51.366 152.468,49.024C153.274,46.902 153.584,44.561 153.584,42.219C153.584,40.39 153.584,34.536 149.12,31.096Z" style="fill:rgb(253,185,18);fill-rule:nonzero;"></path> </g> <g transform="matrix(4.16667,0,0,4.16667,297.168,415.624)"> <path d="M163.998,9.512L163.998,14.188L0.06,14.188L0.06,9.512" style="fill:rgb(35,31,32);fill-rule:nonzero;"></path> </g> </g> </svg> 