<?xml version="1.0" encoding="utf-8"?>
<!-- Generator: Adobe Illustrator 23.0.1, SVG Export Plug-In . SVG Version: 6.00 Build 0)  -->
<svg version="1.1" id="Laag_1" xmlns="http://www.w3.org/2000/svg" xmlns:xlink="http://www.w3.org/1999/xlink" x="0px" y="0px"
	 viewBox="0 0 175.33 49.33" style="enable-background:new 0 0 175.33 49.33;" xml:space="preserve">
<style type="text/css">
	.st0{fill:#04955F;}
	.st1{fill-rule:evenodd;clip-rule:evenodd;fill:#04955F;}
	.st2{fill-rule:evenodd;clip-rule:evenodd;}
</style>
<g>
	<path class="st0" d="M152.21,13.57c0.03,1.12-0.5,2.31-0.96,3.28l-4.17,8.79c-0.56,1.17-1.19,2.28-2.1,3.21l8.68,0.02
		c-0.1-1.24,0.42-2.43,0.95-3.53l2.48-5.22c1.12-2.37,2.15-2.97,5.47-2.97c2.08,0,2.65,0.15,3.26,0.6l2.1-4.42h-3.42
		c-2.56,0-3.6,0.74-5.27,2.63h-0.74l0.97-2.63h-7.26C152.2,13.4,152.21,13.49,152.21,13.57L152.21,13.57z M144.13,31.02l-0.93-1.44
		c1.63-1.54,2.19-2.02,3.24-4.24l4.17-8.79c0.81-1.72,0.98-2.24,0.8-3.94h9.06l0.52,0.81c0.96-0.57,2.02-0.81,3.51-0.81l4.54,0
		l0.93,1.44L167,20.29c-1.36-1.1-1.65-1-3.52-1c-3.12,0-3.86,0.51-4.84,2.57l-2.48,5.22c-0.81,1.71-0.98,2.24-0.8,3.94H144.13
		L144.13,31.02z"/>
	<path class="st0" d="M120.27,13.32h-12.73c-3.49,0-5.15,1.41-6.72,4.71l-3.05,6.43c-1.56,3.29-1.21,4.41,2.05,4.41h12.73
		c3.5,0,5.15-1.41,6.72-4.71l3.05-6.43C123.88,14.43,123.54,13.32,120.27,13.32L120.27,13.32z M123.62,13.75l0.02,0.03l0.86,1.34
		c0.63,0.91,0.32,2.38-0.62,4.35l-3.05,6.43c-1.65,3.48-3.51,5.11-7.35,5.11h-12.73c-1.86,0-2.93-0.41-3.38-1.18l-0.91-1.41
		c-0.55-0.92-0.23-2.36,0.67-4.26l3.05-6.43c1.65-3.48,3.52-5.11,7.35-5.11h12.73C122.1,12.61,123.16,13,123.62,13.75L123.62,13.75z
		 M110.66,15.79h3.39c1.36,0,1.43,0.79,0.94,1.82l-3.45,7.26c-0.49,1.02-1.05,1.52-2.19,1.52h-3.39c-2.44,0-0.59-2.4,2.57-9.08
		C109.03,16.3,109.59,15.79,110.66,15.79L110.66,15.79z M111.59,17.94c-0.72,0-1.08,0.26-1.48,1.11l-3.14,6.63h2.39
		c0.8,0,1.15-0.27,1.55-1.11l3.15-6.63H111.59L111.59,17.94z"/>
	<path class="st0" d="M26.77,28.61c-0.03-1.12,0.5-2.31,0.96-3.28l5.7-12.02h-8.11c0.1,1.24-0.42,2.43-0.95,3.53l-3.79,7.99
		c-0.53,1.11-1.15,1.55-2.31,1.55H15.3c-1.33,0-1.58-0.68-1.03-1.85l5.32-11.22h-8.11c0.1,1.24-0.42,2.43-0.94,3.53L7.4,23.46
		c-1.69,3.56-1.11,5.41,2.3,5.41h6.61c1.16,0,2.05-0.94,2.76-1.7h0.71l-0.56,1.7h7.56C26.77,28.78,26.77,28.7,26.77,28.61
		L26.77,28.61z M18.87,30.54c-0.48,0.29-1.02,0.48-1.63,0.48h-6.61c-1.83,0-2.95-0.5-3.5-1.36l-0.93-1.44
		c-0.73-1.15-0.45-2.95,0.56-5.06l3.13-6.61c0.81-1.72,0.98-2.24,0.8-3.94h10.01l0.93,1.44l-5.52,11.63h2.15
		c0.85,0,1.24-0.25,1.67-1.15l3.79-7.99c0.81-1.71,0.98-2.24,0.8-3.94h10.02l0.93,1.44l-6.18,13.03c-0.81,1.71-0.98,2.24-0.8,3.94
		h-9.32L18.87,30.54L18.87,30.54z"/>
	<path class="st1" d="M55.38,28.1c-0.22,0.29-0.44,0.53-0.65,0.75l8.68,0.02c-0.1-1.24,0.42-2.43,0.94-3.53l5.7-12.02h-8.11
		c0.1,1.24-0.42,2.43-0.95,3.53l-4.17,8.79C56.28,26.78,55.82,27.53,55.38,28.1L55.38,28.1z M53.87,31.02l-0.93-1.44
		c0.64-0.61,1.33-1.2,1.88-1.91c0.41-0.52,0.84-1.23,1.37-2.33l4.17-8.79c0.81-1.72,0.98-2.24,0.8-3.94l10.02,0l0.93,1.44
		l-6.18,13.03c-0.81,1.71-0.98,2.24-0.8,3.94H53.87L53.87,31.02z"/>
	<path class="st1" d="M68.56,6.11c-2.61,0-4.72,1.14-4.98,2.27c-0.22,0.97,1.14,2.12,3.83,2.12c2.61,0,4.72-1.14,4.97-2.27
		C72.61,7.25,71.25,6.11,68.56,6.11L68.56,6.11z M72.89,7.1l0.85,1.29l0.03,0.05c0.25,0.39,0.34,0.84,0.23,1.34
		c-0.38,1.68-3.03,2.83-5.66,2.83c-1.85,0-3.61-0.6-4.28-1.63l-0.02-0.03l-0.87-1.32c-0.02-0.03-0.04-0.06-0.06-0.09
		c-0.24-0.38-0.33-0.82-0.21-1.31c0.38-1.68,3.03-2.83,5.66-2.83C70.46,5.4,72.26,6.03,72.89,7.1L72.89,7.1z M63.17,9.63l-0.06-0.09
		C63.13,9.57,63.15,9.6,63.17,9.63L63.17,9.63z"/>
	<path class="st1" d="M84.48,28.1c-0.22,0.29-0.44,0.53-0.65,0.75l8.68,0.02c-0.1-1.24,0.42-2.43,0.95-3.53l8.49-17.9h-8.11
		c0.1,1.24-0.42,2.43-0.94,3.53l-6.96,14.67C85.38,26.78,84.92,27.53,84.48,28.1L84.48,28.1z M103.06,6.73l0.93,1.44l-8.97,18.91
		c-0.81,1.71-0.98,2.24-0.8,3.94H82.97c-0.93-1.44-0.93-1.44-0.93-1.44c0.64-0.61,1.33-1.2,1.87-1.91c0.4-0.52,0.84-1.23,1.37-2.33
		l6.96-14.66c0.81-1.72,0.98-2.24,0.8-3.94H103.06L103.06,6.73z"/>
	<path class="st0" d="M144.94,13.32h-12.73c-3.49,0-5.15,1.41-6.72,4.71l-3.05,6.43c-1.56,3.29-1.21,4.41,2.05,4.41h12.73
		c3.49,0,5.15-1.41,6.71-4.71l3.05-6.43C148.55,14.43,148.2,13.32,144.94,13.32L144.94,13.32z M148.29,13.75l0.02,0.03l0.86,1.34
		c0.63,0.91,0.32,2.38-0.62,4.35l-3.05,6.43c-1.65,3.48-3.52,5.11-7.36,5.11h-12.73c-1.86,0-2.93-0.41-3.38-1.18l-0.91-1.41
		c-0.56-0.92-0.23-2.36,0.67-4.26l3.05-6.43c1.65-3.48,3.51-5.11,7.35-5.11h12.73C146.77,12.61,147.83,13,148.29,13.75L148.29,13.75
		z M135.33,15.79h3.39c1.36,0,1.43,0.79,0.94,1.82l-3.45,7.26c-0.49,1.02-1.05,1.52-2.19,1.52h-3.39c-2.44,0-0.59-2.4,2.57-9.08
		C133.7,16.3,134.26,15.79,135.33,15.79L135.33,15.79z M136.26,17.94c-0.72,0-1.07,0.26-1.48,1.11l-3.15,6.63h2.4
		c0.8,0,1.15-0.27,1.55-1.11l3.15-6.63H136.26L136.26,17.94z"/>
	<path class="st0" d="M36.76,13.57c0.03,1.12-0.5,2.31-0.96,3.28l-4.17,8.79c-0.55,1.17-1.19,2.28-2.1,3.21l8.68,0.02
		c-0.1-1.24,0.42-2.43,0.95-3.53l3.79-7.99c0.53-1.11,1.15-1.55,2.31-1.55h2.98c1.33,0,1.58,0.68,1.03,1.85l-3.79,7.99
		c-0.55,1.17-1.19,2.28-2.1,3.21l8.68,0.02c-0.1-1.24,0.42-2.43,0.94-3.53l3.13-6.6c1.69-3.57,1.11-5.41-2.3-5.41h-6.61
		c-1.16,0-2.06,0.94-2.76,1.69h-0.71l0.56-1.69h-7.56C36.75,13.4,36.76,13.49,36.76,13.57L36.76,13.57z M57.33,13.99l0.86,1.34
		c0.8,1.15,0.52,2.98-0.5,5.14l-3.13,6.61c-0.81,1.71-0.98,2.24-0.8,3.94H42.51l-0.93-1.44c1.63-1.54,2.18-2.02,3.24-4.24l3.51-7.39
		h-2.15c-0.85,0-1.24,0.25-1.67,1.15l-3.79,7.99c-0.81,1.71-0.98,2.24-0.8,3.94H28.68l-0.93-1.44c1.63-1.54,2.18-2.02,3.24-4.24
		l4.17-8.79c0.81-1.72,0.98-2.24,0.8-3.94h9.32l0.31,0.48c0.48-0.28,1.02-0.48,1.63-0.48h6.61C55.66,12.61,56.79,13.12,57.33,13.99
		L57.33,13.99z"/>
	<path class="st0" d="M86.9,15.79l1.17-2.48h-6.5c0.75-1.57,1.1-3.41,3.19-3.41h3.04c1.2,0,1.7,0.06,2.46,0.43l0.98-2.91h-9.88
		c-3.18,0-5.31,1.96-6.35,4.16l-6.66,14.04c-0.56,1.17-1.19,2.28-2.1,3.21l8.68,0.02c-0.1-1.24,0.42-2.43,0.95-3.53l4.53-9.54H86.9
		L86.9,15.79z M65.39,31.02l-0.93-1.44c1.63-1.54,2.19-2.02,3.24-4.24l6.66-14.04c1.13-2.37,3.46-4.56,6.99-4.56h10.87l0.93,1.44
		l-1.56,4.64c-1.22-0.68-1.41-0.75-2.86-0.75h-3.04c-0.67,0-1.06,0.21-1.34,0.55l4.84,0l0.93,1.44l-1.85,3.89h-6.5l-4.34,9.14
		c-0.81,1.71-0.98,2.24-0.8,3.94H65.39L65.39,31.02z"/>
	<path d="M72.78,35.83h-0.83l-2.26,3.99c-0.62,1.1-1.54,1.71-2.59,1.71c-1.1,0-1.39-0.6-0.77-1.71l2.26-3.99h-0.83l-2.26,3.99
		c-0.94,1.66-0.41,2.41,1.2,2.41c1.56,0,2.93-0.83,3.82-2.41L72.78,35.83L72.78,35.83z"/>
	<polygon points="70.58,42.08 71.36,42.08 74.2,37.07 74.22,37.07 74.65,42.08 75.56,42.08 79.09,35.83 78.3,35.83 75.44,40.9 
		75.42,40.9 74.99,35.83 74.11,35.83 70.58,42.08 	"/>
	<path class="st2" d="M76.91,42.08h2.14c2.08,0,3.67-1.18,4.85-3.27c1.14-2.01,0.61-2.98-1.32-2.98h-2.14L76.91,42.08L76.91,42.08z
		 M80.88,36.53h1.4c1.53,0,1.57,0.9,0.73,2.39c-1.3,2.3-2.92,2.46-3.49,2.46h-1.38L80.88,36.53L80.88,36.53z"/>
	<polygon points="83.07,42.08 87.41,42.08 87.81,41.38 84.3,41.38 85.52,39.22 88.77,39.22 89.17,38.52 85.92,38.52 87.04,36.53 
		90.53,36.53 90.92,35.83 86.61,35.83 83.07,42.08 	"/>
	<path class="st2" d="M91.16,38.71l1.23-2.18h2.07c0.78,0,0.86,0.46,0.51,1.07c-0.51,0.91-1.29,1.11-2.07,1.11H91.16L91.16,38.71z
		 M88.42,42.08h0.83l1.51-2.67h2.03c0.81,0,0.66,0.52,0.4,1.13c-0.22,0.61-0.74,1.29-0.64,1.54h0.93c-0.11-0.43,0.31-1.11,0.61-1.72
		c0.29-0.61,0.44-1.15-0.21-1.29l0.01-0.02c0.87-0.21,1.56-0.83,1.98-1.58c0.56-1,0.2-1.64-0.97-1.64h-2.94L88.42,42.08L88.42,42.08
		z"/>
	<polygon points="94.42,42.08 98.56,42.08 98.96,41.38 95.65,41.38 98.79,35.83 97.96,35.83 94.42,42.08 	"/>
	<path class="st2" d="M98.55,42.08h0.86l1.76-1.88h2.64l-0.38,1.88h0.92l1.09-6.25h-0.92L98.55,42.08L98.55,42.08z M104.54,36.58
		h0.02l-0.61,2.92h-2.12L104.54,36.58L104.54,36.58z"/>
	<polygon points="112.83,35.83 111.88,35.83 108.37,38.81 108.18,35.83 107.19,35.83 107.51,39.52 106.07,42.08 106.9,42.08 
		108.35,39.52 112.83,35.83 	"/>
	<path d="M119.33,37.66c0.72-1.37,0.09-1.98-1.18-1.98c-1.14,0-2.58,0.56-3.3,1.83c-0.65,1.15,0.2,1.44,1.07,1.65
		c0.88,0.22,1.79,0.37,1.3,1.23c-0.51,0.9-1.48,1.14-2.23,1.14c-0.95,0-1.56-0.45-0.97-1.51h-0.79c-0.86,1.52-0.07,2.21,1.33,2.21
		c1.14,0,2.74-0.54,3.5-1.87c0.69-1.23-0.11-1.57-0.97-1.8c-0.88-0.23-1.81-0.34-1.38-1.11c0.46-0.81,1.3-1.07,2-1.07
		c0.86,0,1.24,0.38,0.83,1.28H119.33L119.33,37.66z"/>
	<polygon points="126.61,35.83 125.67,35.83 122.15,38.81 121.96,35.83 120.97,35.83 121.3,39.52 119.85,42.08 120.69,42.08 
		122.13,39.52 126.61,35.83 	"/>
	<path d="M130.68,37.66c0.73-1.37,0.09-1.98-1.18-1.98c-1.14,0-2.58,0.56-3.3,1.83c-0.65,1.15,0.2,1.44,1.07,1.65
		c0.87,0.22,1.79,0.37,1.3,1.23c-0.51,0.9-1.47,1.14-2.23,1.14c-0.95,0-1.56-0.45-0.97-1.51h-0.79c-0.86,1.52-0.07,2.21,1.33,2.21
		c1.14,0,2.74-0.54,3.5-1.87c0.69-1.23-0.11-1.57-0.98-1.8c-0.88-0.23-1.81-0.34-1.37-1.11c0.46-0.81,1.3-1.07,2-1.07
		c0.86,0,1.24,0.38,0.83,1.28H130.68L130.68,37.66z"/>
	<polygon points="130.88,42.08 131.71,42.08 134.85,36.53 136.93,36.53 137.33,35.83 132.33,35.83 131.93,36.53 134.01,36.53 
		130.88,42.08 	"/>
	<polygon points="134.49,42.08 138.83,42.08 139.22,41.38 135.71,41.38 136.94,39.22 140.18,39.22 140.58,38.52 137.33,38.52 
		138.45,36.53 141.94,36.53 142.34,35.83 138.02,35.83 134.49,42.08 	"/>
	<polygon points="139.85,42.08 140.64,42.08 143.58,36.88 143.6,36.88 142.61,42.08 143.32,42.08 148.21,36.88 148.23,36.88 
		145.29,42.08 146.08,42.08 149.61,35.83 148.47,35.83 143.52,41.08 144.53,35.83 143.39,35.83 139.85,42.08 	"/>
	<path d="M154.37,37.66c0.72-1.37,0.09-1.98-1.18-1.98c-1.14,0-2.58,0.56-3.3,1.83c-0.65,1.15,0.19,1.44,1.07,1.65
		c0.87,0.22,1.79,0.37,1.3,1.23c-0.51,0.9-1.47,1.14-2.23,1.14c-0.95,0-1.56-0.45-0.97-1.51h-0.79c-0.86,1.52-0.07,2.21,1.33,2.21
		c1.14,0,2.74-0.54,3.5-1.87c0.69-1.23-0.1-1.57-0.97-1.8c-0.88-0.23-1.81-0.34-1.38-1.11c0.46-0.81,1.3-1.07,2.01-1.07
		c0.86,0,1.23,0.38,0.83,1.28H154.37L154.37,37.66z"/>
</g>
</svg>
